# xmcd
#
# Track frame offsets:
#	150
#	9650
#	25075
#	46660
#	55087
#	71541
#	88816
#	111100
#	120866
#	134204
#	152053
#	166716
#	174424
#	191570
#	210301
#
# Disc length: 3002 seconds
#
# Revision: 1
# Processed by: cddbd v1.5.2PL0 Copyright (c) Steve Scherf et al.
# Submitted via: audiograbber 1.83.01
#
DISCID=bb0bb80f
DTITLE=Reba Mcentire - My Kind Of Christmas
DYEAR=2018
DGENRE=Christmas
TTITLE0=Winter Wonderland
TTITLE1=The Christmas Song (Chestnuts Roasting on a Open Fire)
TTITLE2=Mary, Did You Know
TTITLE3=Jingle Bell Rock
TTITLE4=O Holy Night
TTITLE5=Hard Candy Christmas
TTITLE6=Back to God
TTITLE7=Santa Claus Is Coming to Town
TTITLE8=O Come All Ye Faithful
TTITLE9=O Little Town of Bethlehem
TTITLE10=White Christmas
TTITLE11=Jingle Bells
TTITLE12=I'll Be Home for Christmas
TTITLE13=Silent Night
TTITLE14=What Child Is This
EXTD=
EXTT0=
EXTT1=
EXTT2=
EXTT3=
EXTT4=
EXTT5=
EXTT6=
EXTT7=
EXTT8=
EXTT9=
EXTT10=
EXTT11=
EXTT12=
EXTT13=
EXTT14=
PLAYORDER=
